<svg xmlns="http://www.w3.org/2000/svg" width="104.648" height="104.831" viewBox="0 0 104.648 104.831">
  <defs>
    <style>
      .cls-1 {
        fill: #ccc;
      }

      .cls-2 {
        fill: #518ef8;
      }

      .cls-3 {
        fill: #28b446;
      }

      .cls-4 {
        fill: #f2f2f2;
      }

      .cls-5 {
        fill: #ffd837;
      }

      .cls-6 {
        fill: #fff;
      }

      .cls-7 {
        fill: #f14336;
      }

      .cls-8 {
        fill: #7e2d25;
      }
    </style>
  </defs>
  <g id="google" transform="translate(-0.447)">
    <path id="Path_3100" data-name="Path 3100" class="cls-1" d="M272.386,200.508v44.564l-14.005-2.592-6.174-7.407-26.015-28.922,22.088-15.694c11.064,14.6,11.413,11.044,11.413,11.044s5.465-8.159,12.477-1.148Z" transform="translate(-179.523 -151.462)"/>
    <path id="Path_3101" data-name="Path 3101" class="cls-2" d="M74.305,223.1l45.927,59.11c-.267.026-.538.041-.811.041H44.336Z" transform="translate(-34.903 -177.424)"/>
    <path id="Path_3102" data-name="Path 3102" class="cls-3" d="M68.756,87.218.447,144.709V68.981a8.344,8.344,0,0,1,8.344-8.344H58.6c-2.139,3.676,5.792,6.036,5.792,10.6A39.8,39.8,0,0,0,68.756,87.218Z" transform="translate(0 -48.222)"/>
    <path id="Path_3103" data-name="Path 3103" class="cls-4" d="M273.278,316.7v2.877a8.343,8.343,0,0,1-7.533,8.3l-38.432-37.926,9.3-9.428,21.471,21.187,1.186,1.171Z" transform="translate(-180.415 -223.085)"/>
    <path id="Path_3104" data-name="Path 3104" class="cls-5" d="M66.39,192.792,56.2,203.118l-9.3,9.428L9.433,250.513H8.791A8.346,8.346,0,0,1,.447,242.17l58.2-58.98c1.09,1.866,8.585-.023,10.108,1.488l2.8,3.6C72.921,189.732,65.216,191.246,66.39,192.792Z" transform="translate(0 -145.682)"/>
    <path id="Path_3105" data-name="Path 3105" class="cls-6" d="M55.261,124.489a13.3,13.3,0,1,1,9.4-22.7l-3.083,3.082a8.934,8.934,0,1,0,2.351,8.5H55.261v-4.359h13.3v2.18A13.311,13.311,0,0,1,55.261,124.489Z" transform="translate(-33.017 -77.853)"/>
    <path id="Path_3106" data-name="Path 3106" class="cls-7" d="M271.428,12.416a24.931,24.931,0,1,1,39.147,30.178,56.971,56.971,0,0,0-5.106,6.3c-9.977,14.214-12.477,30.443-12.477,30.443s-2.714-17.621-13.779-32.225a56.841,56.841,0,0,0-3.807-4.516h0a24.936,24.936,0,0,1-3.982-30.178Z" transform="translate(-212.824)"/>
    <path id="Path_3107" data-name="Path 3107" class="cls-8" d="M338.279,56.947a13.266,13.266,0,1,1-13.267,13.267A13.266,13.266,0,0,1,338.279,56.947Z" transform="translate(-258.111 -45.287)"/>
  </g>
</svg>
